<svg fill="#000000" xmlns="http://www.w3.org/2000/svg"  width="114" height="65" viewBox="0 0 114 65"><path d="M 0 19 L 0.265625 19.726563 L 2 20 L 2 28 C 1.5 28.101563 0.71875 28.242188 0.21875 28.34375 L 0 29 L 6 29 L 5.800781 28.300781 L 4 28 L 4 20 C 4.5 20 5.402344 20.148438 5.800781 20.347656 C 6.402344 20.648438 6.800781 21.25 6.800781 22.050781 C 6.800781 23.550781 5.625 24.140625 4.398438 24.316406 L 4.398438 25.015625 C 6.53125 25.015625 9 23.648438 9 21.25 C 9 20.851563 8.800781 19.949219 7.601563 19.449219 C 6.898438 19.148438 5.398438 19 4 19 Z M 10 19 L 10.21875 19.65625 C 10.71875 19.757813 11.5 19.898438 12 20 L 12 28 C 11.5 28.101563 10.71875 28.242188 10.21875 28.34375 L 10 29 L 16 29 L 15.800781 28.300781 L 14 28 L 14 20 L 15.800781 19.699219 L 16 19 Z M 17 19 L 17.21875 19.65625 C 17.550781 19.722656 18.003906 19.808594 18.421875 19.886719 L 18.402344 19.902344 C 18.402344 19.902344 19.300781 20.898438 19.902344 21.699219 C 20.5 22.5 21.097656 23.300781 21.597656 23.902344 C 21 24.699219 18.699219 27.699219 18.097656 28.097656 C 18.066406 28.132813 18.050781 28.160156 18.019531 28.1875 C 17.730469 28.246094 17.445313 28.296875 17.21875 28.34375 L 17 29 L 22 29 L 21.800781 28.300781 C 21.203125 28.199219 20.605469 28.101563 20.003906 28 C 20.550781 26.96875 21.628906 25.261719 22.097656 24.699219 C 22.5 25.097656 23.101563 25.898438 23.800781 26.699219 C 24.699219 27.699219 25.800781 29.199219 27 30 L 28 30 L 23.402344 23.199219 C 23.402344 23.199219 24.300781 22.101563 24.902344 21.402344 C 25.300781 20.902344 25.699219 20.398438 26.199219 20 L 26.230469 19.964844 C 26.753906 19.875 27.277344 19.789063 27.800781 19.699219 L 28 19 L 23 19 L 23.21875 19.65625 C 23.558594 19.722656 24.023438 19.8125 24.445313 19.890625 C 24.023438 20.609375 23.179688 21.824219 22.699219 22.402344 C 22.324219 21.839844 21.089844 20.074219 20.933594 19.84375 C 21.222656 19.796875 21.511719 19.746094 21.800781 19.699219 L 22 19 Z M 31 19 L 31.21875 19.65625 C 31.640625 19.742188 32.257813 19.855469 32.742188 19.949219 C 32.160156 21.472656 30.109375 26.964844 29.609375 28.078125 C 29.148438 28.164063 28.601563 28.265625 28.21875 28.34375 L 28 29 L 33 29 L 32.800781 28.300781 C 32.367188 28.230469 31.9375 28.15625 31.503906 28.082031 C 31.675781 27.226563 32.0625 25.726563 32.296875 25 L 35.390625 25 C 35.796875 26.027344 36.152344 27.054688 36.496094 28.082031 C 36.0625 28.15625 35.632813 28.230469 35.199219 28.300781 L 35 29 L 40 29 L 39.78125 28.34375 C 39.515625 28.289063 39.167969 28.226563 38.824219 28.160156 C 38.8125 28.140625 38.8125 28.121094 38.796875 28.101563 C 38.199219 26.902344 37.398438 24.703125 37 23.703125 C 36.503906 22.414063 35.914063 20.644531 35.609375 19.832031 C 36.085938 19.789063 36.539063 19.746094 36.796875 19.703125 L 37 19 Z M 40 19 L 40.265625 19.726563 L 42 20 L 42 28 L 41 28.34375 L 40.78125 29 L 46 29 L 45.800781 28.300781 L 44 28 L 44 25 L 44.640625 25 C 45.371094 26.027344 46.734375 27.683594 48.800781 29.199219 L 50 29 C 49.011719 27.929688 47.683594 26.113281 46.6875 24.609375 C 47.6875 24.375 49.03125 23.75 49 22 C 48.984375 21.0625 48.8125 19 44 19 Z M 44 20 C 44.5 20 45.402344 20.148438 45.800781 20.347656 C 46.402344 20.648438 46.800781 21.25 46.800781 22.050781 C 46.800781 22.878906 46.433594 23.421875 45.90625 23.78125 C 45.570313 23.914063 45.191406 23.976563 44.855469 24 L 44 24 Z M 33.800781 20.5 C 34.101563 21.398438 34.699219 23.199219 35 24 L 32.628906 24 C 32.957031 22.996094 33.496094 21.34375 33.800781 20.5 Z"/></svg>