<svg width="114" height="65" viewBox="0 0 114 65" fill="none" xmlns="http://www.w3.org/2000/svg">
<path d="M82.2926 0H31.7074C27.9811 0 25 2.98108 25 6.70742V57.2926C25 61.0189 27.9811 64 31.7074 64H82.1994C85.9258 64 88.9068 61.0189 88.9068 57.2926V6.70742C89 2.98108 86.0189 0 82.2926 0ZM68.0393 52.6346L64.4993 42.4804H52.2955C52.2955 42.4804 52.4818 41.7351 52.7613 41.1761C53.0408 40.6172 52.9476 40.0582 52.4818 39.9651C52.016 39.8719 52.1092 39.4061 52.3886 39.2198C52.6681 39.0335 53.4134 38.754 55.1834 37.9156C56.9534 37.0771 55.8355 36.425 55.2766 36.0524C54.9971 35.7729 54.8108 35.4003 54.9039 34.9345H61.7045L57.0466 21.706L52.6681 34.0961C52.6681 34.0961 52.1092 35.4003 52.7613 35.9592C53.4134 36.5182 54.5313 36.984 52.6681 37.8224C50.805 38.6608 50.1528 38.9403 49.8734 39.1266C49.5939 39.313 49.4076 39.7787 49.9665 39.8719C50.5255 39.9651 50.4323 40.524 50.246 41.083L49.8734 41.9214L46.147 52.5415H38.1354L41.8617 42.0146L42.2344 41.083C42.4207 40.524 42.4207 39.9651 41.9549 39.8719C41.4891 39.7787 41.7686 39.313 42.048 39.1266C42.3275 38.9403 43.0728 38.6608 44.8428 37.8224C46.6128 36.984 45.4949 36.3319 44.936 35.9592C44.377 35.5866 44.8428 34.0961 44.8428 34.0961L44.936 33.9098L53.2271 10.2475H61.2387L69.623 34.1892C69.623 34.2824 69.623 34.2824 69.7162 34.3755C69.9956 35.0277 70.4614 35.5866 71.0204 35.9592C72.1383 36.7045 74.4673 37.0771 72.6972 37.9156C71.952 38.1951 71.2067 38.5677 70.5546 39.0335C70.2751 39.2198 70.2751 39.6856 70.8341 39.9651C71.393 40.2445 71.8588 40.3377 72.0451 40.9898C72.2314 41.6419 72.3246 41.9214 72.3246 41.9214V42.0146L76.0509 52.6346H68.0393Z" fill="url(#paint0_linear)"/>
<defs>
<linearGradient id="paint0_linear" x1="57.0047" y1="0" x2="57.0047" y2="64.0093" gradientUnits="userSpaceOnUse">
<stop stop-color="#C6C6C6"/>
<stop offset="1" stop-color="#575756"/>
</linearGradient>
</defs>
</svg>
